<svg xmlns="http://www.w3.org/2000/svg" width="16" height="16" fill="none"><g fill="#F4F4FD" clip-path="url(#a)" filter="url(#b)"><path d="M19.984 4.704c-.037-.85-.175-1.435-.372-1.941a3.905 3.905 0 0 0-.925-1.419 3.938 3.938 0 0 0-1.416-.922c-.51-.197-1.09-.335-1.94-.372C14.473.01 14.2 0 12.03 0 9.857 0 9.585.01 8.732.047c-.85.037-1.434.175-1.94.372a3.904 3.904 0 0 0-1.42.925A3.94 3.94 0 0 0 4.45 2.76c-.197.51-.334 1.09-.372 1.94-.04.857-.05 1.13-.05 3.301 0 2.173.01 2.445.047 3.298.037.85.175 1.435.372 1.941.203.538.519 1.019.925 1.42.4.405.885.721 1.416.921.51.197 1.09.335 1.941.372.853.038 1.125.047 3.298.047 2.172 0 2.444-.01 3.297-.047.85-.037 1.435-.175 1.941-.372a4.093 4.093 0 0 0 2.341-2.34c.197-.51.335-1.092.372-1.942.038-.853.047-1.125.047-3.297 0-2.173-.003-2.445-.04-3.298Zm-1.44 6.532c-.035.782-.166 1.204-.276 1.485a2.655 2.655 0 0 1-1.519 1.52c-.281.109-.706.24-1.484.274-.844.038-1.097.047-3.232.047-2.135 0-2.391-.01-3.232-.047-.782-.034-1.204-.165-1.485-.275a2.462 2.462 0 0 1-.919-.597 2.487 2.487 0 0 1-.597-.919c-.11-.281-.24-.706-.275-1.484-.037-.844-.047-1.098-.047-3.232 0-2.135.01-2.391.047-3.232.035-.782.166-1.203.275-1.485.128-.347.332-.662.6-.919.26-.265.572-.469.92-.597.28-.11.706-.24 1.484-.275.844-.037 1.097-.047 3.232-.047 2.138 0 2.39.01 3.232.047.781.035 1.203.166 1.485.275.346.128.662.332.918.597.266.26.47.572.597.92.11.28.241.706.276 1.484.037.844.046 1.097.046 3.232 0 2.135-.009 2.385-.046 3.229Z"/><path d="M12.03 3.891a4.111 4.111 0 0 0 0 8.22 4.111 4.111 0 0 0 0-8.22Zm0 6.777a2.667 2.667 0 1 1 0-5.334 2.667 2.667 0 0 1 0 5.334ZM17.262 3.729a.96.96 0 1 1-1.92 0 .96.96 0 0 1 1.92 0Z"/></g><defs><clipPath id="a"><path fill="#fff" d="M4 0h16v16H4z"/></clipPath><filter id="b" width="24" height="24" x="0" y="0" color-interpolation-filters="sRGB" filterUnits="userSpaceOnUse"><feFlood flood-opacity="0" result="BackgroundImageFix"/><feColorMatrix in="SourceAlpha" result="hardAlpha" values="0 0 0 0 0 0 0 0 0 0 0 0 0 0 0 0 0 0 127 0"/><feOffset dy="4"/><feGaussianBlur stdDeviation="2"/><feComposite in2="hardAlpha" operator="out"/><feColorMatrix values="0 0 0 0 0 0 0 0 0 0 0 0 0 0 0 0 0 0 0.25 0"/><feBlend in2="BackgroundImageFix" result="effect1_dropShadow_495827_959"/><feBlend in="SourceGraphic" in2="effect1_dropShadow_495827_959" result="shape"/></filter></defs></svg>